<?xml version="1.0" encoding="UTF-8"?>
<svg id="Layer_1" data-name="Layer 1" xmlns="http://www.w3.org/2000/svg" viewBox="0 0 500 500">
  <defs>
    <style>
      .cls-1 {
        fill: #c98b50;
        stroke: #c98b50;
        stroke-miterlimit: 10;
        stroke-width: .75px;
      }
    </style>
  </defs>
  <path class="cls-1" d="M263.02,24.27c1.38,1.11,2.52,4.19,3.24,5.82,3.19-.25,5.01-.19,7.52.1,3.2.37,6.95.86,10.32,1.18,32.35,3.13,70.88,19.82,91.59,46.41,1.47,1.89,4.25,5.74,6.01,7.65s6.96,1.71,9.47,4.73c2.29,2.74.69,6.17,1.76,8.86,1.16,2.91,13.2,14.35,16.23,18.27,12.79,16.5,22.21,34.76,26.52,55.15,6.69.27,7.59,9.42,3.94,14.47-.76,1.05-2.41.5-2.63,1.52-.6,2.71-.62,17.48-1.27,21.78-5.96,39.44-14.08,51.88-28.27,77.22-.53.94-1.82,1.46-2.14,2.5-1.26,4.05,2.9,5.95,1.42,10.71s-6.95,4.87-7.85,6.75c-.66,1.36-.57,4.41-1.07,6.23-8.2,30.16-19.57,57.7-39.32,81.76-2.87,3.5-6.46,6.22-4.36,7.86.66.52,1.03,1.58,1.04,2.01,0,.3-2.35,5.26-2.57,5.47-1.39,1.32-6.8,1.91-8.66,1.36-1.77-.53-5.07-4.79-5.15-6.84-.24-5.97,3.17-7.61,8.02-8.87.52-2.6,1.35-5.63,2.03-8.19,2.92-10.95,4.82-23.4,5.28-35.31.45-11.72-4.53-5.61-9.91-2.05-1.32.87-2.6,1.8-3.8,2.84-36.22,31.46-81.54,56.45-104.28,100.82-1.15,3.68,1.99,4.25,2.48,7.19,1.97,11.91-13.73,12.47-15.46,3.63-.5-2.54,1.35-4.85.26-8.32-.42-1.35-1.26-2.92-1.8-3.85-8.99-15.62-21.38-39.95-24.02-57.92-1.14-7.78.32-15.63-.08-23.47-6.22-.73-9.27,6.23-12.91,11.31-1.94,3.26-10.37,15.8-8.86,20.73.24.79,1.31,1.37,1.69,2.31,1.36,3.36.72,5.87-1.82,8.44-5.62,5.69-14.14.52-13.88-6.6.08-2.33,2.79-2.05,1.97-7.36-1.35-8.77-5.18-17.68-5.99-27.17-.26-3.02-.27-8.14-.88-10.64-.11-.45-.56-2.52-.65-2.74-.31-.78.31.44,0,0-.86-1.21-3.45-2.62-4.48-3.82-15.82-18.4-19.67-30.53-17.93-54.46.37-5.01.57-9.95,1.37-14.91-2.96.6-5.85,1.76-8.31,2.94-1.59.76-10.78,5.01-10.78,5.01,0,0-2.64,5.48-6.62,12.44-3.27,5.71-11.55,18.74-11.55,18.74l-3.54-5.01s-8.38-10.92-12.72-17.38c-2.93-4.37-10.58-15.41-10.58-15.41l-.27-33.5-3.79-6.59s-1.28-17.19-2.28-23.17l-14.14-13.72-.33-17.56,10.67-9.87c12.35-9.09,23.97-19.83,35.31-30.07.93-.84,3.3-2.77,3.3-2.77l6.71-18.06s13.52-10.14,16.35-12.18c5.95-4.28,12.21-8.41,17.94-12.58,3.12-2.27,11.41-6.14,11.87-10.09.24-2.09-.87-3.46.01-5.87.68-1.87,2.31-2.4,2.63-4.03.37-1.9-.93-6.22-1.06-8.21-.69-10.23-1.08-11.19.8-19.26,8.96-38.6,55.59-43.94,88.56-36.92,2.45.52,5.55,1.58,7.56,1.78,3.04.3,6.26-5.89,12.11-1.21ZM249.18,29.47c-12.67-4.81-27.83-5.62-41.37-4.73-19.47,1.28-42.68,13.33-48.63,33.14-1.53,5.1-3.28,22.97-.44,27.2,3.89,5.78,7.19-5.02,8.5-7.03,15.91-24.27,43.7-40.13,71.91-45.18,3.06-.55,6.96-.58,10.12-.84l-.1-2.56ZM369.8,76.62c-14.34-15.29-34.45-28.24-54.19-34.95-11.98-4.07-36.62-8.97-49.44-7.54-2.17.24-3.66,4.43-7.96,4.57-4.97.17-5.04-4.22-11.94-3.36-23.3,2.88-51.16,15.75-66.91,33.27-2.06,2.29-14.49,17.01-12.03,19.58.94.18,3.38-1.77,4.13-2.27,4.13-2.76,11.15-7.73,16.18-10.36,17.56-9.14,36.91-13.95,55.64-13.61,2.07-.63,2.21-4.73,7.63-5.38,2.56-.31,6.35-.11,8.36,1.63.92.8,1.3,2.3,2.35,2.96,3.16,1.99,13.64-.44,17.82-.62,25.9-1.15,60.8,6.01,83.74,17.82,3.15,1.62,11.06,7.08,15.32,10.31.85.64,1.09.08.98-.99-1.37-2.17-8.14-9.41-9.69-11.06ZM395.65,107.26c-1.3-1.32-4.26-4.9-5.7-5.3-1.24-.34-3.05,1.06-4.98,1.13-6.53.25-9.11-6.46-7.92-12-29.8-19.6-68.47-29.05-104.2-26.53-4.95.35-14.76,1.23-5.57,5.56,10.64,5.01,19.03,9.14,28.2,17.25,3.71,3.28,6.85,7.1,10.22,10.71,2.51,2.86,6.78-.73,10.26-.35,6.99.77,11.03,7.61,12.36,13.84,1.58.37,3.26-.19,4.85.12,36.38,7.12,64.22,17.71,87.92,46.75,6.9,8.46,8.05,14.31,8.47,14.46.66.24,1.65.06,2.37.11,0-.94-3.56-9.86-3.81-10.97-4.15-18.24-19.41-41.5-32.47-54.78ZM54.88,194.92v13.93c0,.38,1,.97,1.61.99,2.51.05,7.53-2.8,11.33-2.7,3.41.09,8.13,3.15,11.12,2.61,2.22-.4,7.92-6.37,10.95-7.67,2.74-1.18,4.66-.26,7.45-.18l-27.54,21.22c.05,7.9,1.78,24.77,1.78,24.77,0,0,5.79,5.87,12.64,7.92,12.04,3.61,24.59,6.31,37.36,5.82,2.48-.09,11.92-.82,13.56-1.7,1.74-.94,1.12-3.37,2.2-4.78,1.39-1.83,5.98-2.54,6.31-2.98,2.22-2.95.58-13.72-.73-17.25-3.15-8.5-11.83-13.3-20.37-15.13,10.71-11.01,24.5-20.3,38.32-27.02,14.85-7.21,34.05-12.5,50.88-12.81,3.24-.06,16.12,1.27,17.62.37,1.89-1.13.92-3.88.12-5.45-2.67-5.27-16.42-24.1-21.84-25.29-2.76-.6-4.9,1.13-8.17.23-10.2-2.82-10.45-17.09-.83-20.78,6.58-2.52,9.27,2.47,12.97,1.73,2.72-.54,7.06-3.39,9.65-4.32,19.76-7.07,40.83-11.92,61.55-14.75,1.58-.22,16.78.34,17.18-.07l.03-2.24c-26.31-6.96-60.36-5.41-86.62.57-6.96,1.58-19.1,4.43-25.37,7.14-4.9,2.12-1.76,5.4-6.22,8.38-7.32,4.88-15.11-1.76-11.99-10,2.41-6.37,7.84-3.13,10.82-5.1,14.52-18.32,36.18-37,62.21-42.98l.05-1.93c-22.21,1.24-54.73,11.6-72.49,26.75,1.12,6.83-.68,12.25-8.41,12.83-3.15.23-5.84-1.83-8.09-.86l-43.81,30.86-6.43,19.11-48.8,40.77ZM298.8,95.96c-6.82-7.46-21.19-17.71-30.49-21.59-1.09-.46-6.18-2.61-6.73-2.56-1.15.1-2.31,1.76-3.67,2.37-4.04,1.81-6.31,1.9-10.2-.44-4.25-2.55-1.9-4.13-8.75-1.92-13.53,4.35-31.07,15.82-41.47,25.54-2.68,2.5-10.71,10.69-12.5,13.38-.59.89-.85,1.84-.74,2.91,1.74.15,3.41-.09,5.08-.55,8.51-2.33,16.15-5.46,25.17-7.34,22.12-4.6,48.25-6.64,70.76-3.23,2.58.39,11.31,2.85,13.34,3.01,1.14.09,3.75-3.58,3.72-4.84-.02-.66-2.84-3.96-3.54-4.73ZM301.26,122.04c-1.65-1.94-2.23-3.93-2.52-6.44l-.78-.54c-2.39-.14-4.81-.17-7.2-.08-19.69.74-39.67,6.27-58.06,12.27-6.23,2.03-12.7,3.52-18.58,6.63-2.46,5.48,3.3,3.85,6.24,4.38,57.57,10.39,88.7,39.36,114.44,90.04.75,1.47,2.82,9.74,5.37,8.08.41-.26,1.29-8.22,1.36-9.59,1.73-30.78-3.1-61.97-15.47-90.08-1.55-3.51-3.64-6.83-5.3-10.28-1.15-1.4-4.49.77-6.32.99-4.29.52-10.42-2.13-13.18-5.38ZM410.25,276.62c12.71-20.7,22.94-51.36,22.83-75.76,0-1.57.39-11.27,0-11.76-1.03-1.3-6-1.13-7.03-4.42-1.27-4.07,1.61-5.98,1.07-9.02-.41-2.32-3.42-7.23-5.37-9.9-14.92-20.33-36.95-35.38-60.86-43.31-4.02-1.33-32.36-9.29-34.44-7.28-.17,1.24,3.85,2.97,4.74,3.82,2.46,2.33,8.27,4.98,11.31,7.27,19.34,14.59,34.59,34.28,44.46,56.38,4.78,2.52,10.4,3.21,9.59,10.23-.23,1.97-2.12,4.03-2.47,5.56-.75,3.3,2.78,10.94,3.63,14.59,3.33,14.32,5.46,31.55,6.15,46.27.41,8.9.36,23.53-2.43,29.25,4.3-1.23,6.16-7.52,7.92-10.24.37-.57.74-1.38.91-1.67ZM330.01,122.49c-1.44-.94-6.74-1.47-6.43.74,4,7.93,7.99,15.89,10.94,24.26,6.82,19.35,10.05,39.5,10.99,60l-1.41,31.9c.14,1.18,2.6,2.01,3.42,3.91,1.89,4.38-.11,8.28-2.56,11.84,5.67,18.39,10,37.34,11.79,56.55.46,4.99-.18,13.28.81,17.77,1.63,7.31,7.17-.62,9.38-2.61,3.32-3,7.67-6.42,10.72-9.54,1.82-1.86,13.39-14.57,13.58-15.58.67-3.56-1.27-6.46,2.33-9.61,1.33-1.17,4.18-1.55,4.84-3.12,1.26-9.62,1.71-19.37,1.5-29.08-.37-16.95-3.01-37.97-8.34-54.02-2.38-7.16-1.41-4.16-6.87-7.07-6.1-3.24-4.64-9.81-.82-14.41-4.98-9.48-9.78-19.01-16.22-27.59-10.44-13.88-23.53-25.18-37.64-34.34ZM277.57,356.24c20.27-21.27,37.47-41.3,48.98-68.78,2.28-5.44,10.49-27.58,9.62-32.14-.46-2.41-4.16-3.3-3.92-8.6.18-3.82,3.73-3.77,2.99-7.7s-10.19-21.43-12.74-25.78c-20.44-34.95-61.4-69.12-103.43-71.05-2.77-.13-5.8-.77-7.12,2.15-1.61,3.57.13,2.67,1.49,4.1,4.38,4.59,9.16,9.13,12.87,14.36,1.66,2.34,6.89,12.49,7.97,13.26,1.78,1.27,4.48.05,6.55,1.25.21.12,3.2,3.28,3.31,3.5.59,1.26.15,3.32,1.13,4.17.68.59,9.55,3.56,11.45,4.48,33.92,16.29,47.63,47.54,42.21,84.32-.33,2.21-.52,5.1-1.77,7.61-.18,2.21,4.52,2.6,4.55,6.4,0,1.16-1.28,5.11-1.99,6.01-2.23,2.78-9.69,3.93-8.18,2.93s-1.32,4.81-1.98,5.82c-13.55,21.04-43.11,33.57-63.75,46.06-1.78,1.07-10.43,6.49-11.11,7.5-1.05,1.58.9,7.2-.46,10.79-.49,1.29-2.66,3.98-3.89,4.73-4.67,2.83-8.33-.54-9.48,7.77-2.03,14.61,5.5,37.63,11.98,50.97,3.31,6.81,9.97,18.28,13.43,25.02,1.94-.17-1.25-13.81-.91-17.64,3.23-36.55,28.81-56.97,52.19-81.51ZM143.25,227.1c.38.48.89,1.06,1.51,2,1.43,2.2,3.49,8.89,3.7,11.57.33,4.19-.8,10.05.64,14.62.27.85,1.36,1.67,2.31,1.66,7.2-3.09,14.91-5.23,22.03-8.5,16.4-7.54,39.86-25.88,58.77-22.52,2.84.5,5.55,1.17,6.41-.54,2.29-4.57.75-16.47,0-21.79-.27-1.91-1.55-8.22-2.09-9.85-.8-2.44-4.42-1.75-5.86-3.43-1.14-1.33-.75-3.9-2.33-4.97-.93-.62-5.21-1.25-6.6-1.37-26.82-2.28-56.84,4.71-76.64,22.12-.53.47-1.17,1-1.8,1.44-3.78,2.66-9.35,5.8-11.49,8.57-.61.79-.98,1.45-.32,2.39,3.69,2.21,7.46,3.9,10.36,7.1.31.34.91.87,1.41,1.5ZM269.6,201.47l-9.92-6.34c-2.13-1.88-13.43-7.54-16.35-6.2-.49.22-3.5,3.01-3.25,3.47.23.42.99,2.51,1.2,3.89,1.57,10.17,1.88,20.82.8,31.02.43,1.76,9.49,5.49,11.65,7.29,17.26,14.41,14.19,40.23,2.74,57.73s-38.18,38.1-46.47,57.69c-.35.83-.7,1.51-.52,2.46,4.42,1.08,5.67-1.76,8.69-3.57,16.62-9.96,36.24-18.97,51.33-30.94,4.53-3.6,19.11-17.82,18.28-23.5-.32-2.22-3.44-3.13-2.54-7.83.44-2.29,4.07-5.08,6.04-6.2.78-.44,1.59-.44,1.88-.71.18-.17,1.05-3.7,1.3-5.13,4.71-26.98-3.12-56.32-24.86-73.13ZM235.68,230.41c-3.57-1.5-10.61-.69-15.26,0-10.3,1.54-43.4,21.33-56.59,26.34-2,.76-10.91,2.42-11.95,3.64-.41.48-.5,3.85-2.41,5.88-1.81,1.92-5.4,2.31-6.23,3.72-.48.83-2.68,9.65-3.12,11.48-5.28,22.04-6.46,42.95,6.45,62.61,1.31,2,5.41,7.49,6.95,8.76.79.65,2.86,2.32,3.87,2.31,1.86-11.84,6.51-22.6,13.61-32.19,8.55-11.17,20.67-18.9,29.84-29.2-1.17-5.84,1.88-11.55,8.28-11.62,1.92-.02,2.94,1.45,5.26-.05.51-.33,6.67-8.32,7.44-9.47,7.81-11.65,14.74-27.39,15.41-41.43-.52-.12-1.19-.62-1.55-.77ZM228.28,318.88c13.99-15.93,32.08-30.77,34.19-53.72.62-6.7-2.2-16.67-6.27-22.1-1.58-2.11-12.55-12.19-14.87-9.98-1.12,7.43-3.14,15.25-5.98,22.22-3.79,9.27-9.5,18.22-15.28,26.37-.81,1.15-3.53,2.96-3.88,4.28s1.28,2.66,1.23,4.44c-.11,3.84-4.38,8.29-8.3,8.42-4.52.15-2.46-3.44-8.61,1.28-13.03,10-30.48,26.55-35.84,42.42-5.43,16.09-4.24,33.65-.13,49.93.25.98,2.22,6.55,2.62,7.33,1.28,2.49,2.32,3.43,3.8,1.17.94-1.43,2.53-4.61,3.02-6.01,2.78-8.09,8.87-15.59,14.29-22.2,1.12-1.36,4.45-3.91,4.95-5.01,1.47-3.23-1.04-6.84,2.05-11.22,3.11-4.41,7.27-3.55,9.6-5.66,1.59-1.44,7.77-11.8,9.84-14.72,4.14-5.85,8.64-11.62,13.59-17.25ZM75.45,257.61v30.19c5.22,6.97,10.23,14.16,15.16,21.33,1.14,1.67,7.04,9.52,7.04,9.52l15.79-27.03c3.42-1.54,6.12-2.87,11.72-5.75,2.41-1.24,10.14-4.48,10.14-4.48,0,0,3.68-11.7,3.39-13.12-.05-.25-1.88-3.34-2.24-3.65-1.28-1.08-7.47-.55-9.54-.33-12.21,1.28-20.04.74-32.36-1.54-6.49-1.2-12.72-3.55-19.09-5.13ZM350.32,333.45c1.1-.99,3.63-.96,3.77-3.2-.4-22.48-4.05-44.64-9.97-66.3-.53-1.93-1.47-7.75-3.98-6.04-.7.48-4.32,13.78-5.09,16.14-7.86,23.94-19.93,45.86-36.33,65.18-24.78,29.2-68.79,58.82-69.37,101.14-.06,4.68.97,8.97.69,13.63,1.18.06,2.02.19,2.99-.66,1.79-1.58,5.57-11.26,7.35-13.88,28.47-38.85,70.02-64.69,106.72-94.97,2.21-2.73-.34-7.82,3.22-11.04ZM355.86,392.73c2.76-2.71,9.41-12.17,11.77-15.77,12.25-18.69,21.09-40.56,26.04-62.2.41-1.79,3.74-8.64,1.21-9.38-1.15-.27-1.59.41-2.33.96-3.63,2.72-8.91,10.28-12.58,13.96-4.06,4.06-8.29,8.25-12.64,11.92-.77.65-1.89,1.42-2.44,2.01-2,2.13-.65,3.76-.79,5.96-.35,5.57-6.22,6.97-6.6,8.06-.6,1.7.09,6.24-.09,8.53-.99,12.25-3.44,27.75-6.69,39.51-1.25,5.33,3.96-2.41,5.14-3.57Z"/>
  <polygon class="cls-1" points="111.57 180.48 138.37 149.61 138.37 155.94 172.41 154.02 160.53 158.77 153.18 167.81 130.11 167.81 111.57 180.48"/>
  <circle class="cls-1" cx="161.01" cy="95.28" r="10.59"/>
  <circle class="cls-1" cx="253.49" cy="64.15" r="10.59"/>
  <circle class="cls-1" cx="258.41" cy="30.2" r="9.13"/>
  <circle class="cls-1" cx="385.07" cy="95.28" r="9.13"/>
  <circle class="cls-1" cx="433.99" cy="180.48" r="9.13"/>
  <circle class="cls-1" cx="389.05" cy="191.53" r="9.42"/>
  <circle class="cls-1" cx="398.94" cy="297.34" r="10.04"/>
  <circle class="cls-1" cx="355.62" cy="339" r="8.81"/>
  <circle class="cls-1" cx="230.65" cy="461.74" r="9.6"/>
  <circle class="cls-1" cx="169.76" cy="409.24" r="8.76"/>
  <circle class="cls-1" cx="203.58" cy="362.77" r="11.82"/>
  <circle class="cls-1" cx="346.82" cy="404.19" r="8.81"/>
  <circle class="cls-1" cx="293.16" cy="288.53" r="8.81"/>
  <circle class="cls-1" cx="340.51" cy="248.17" r="8.81"/>
  <circle class="cls-1" cx="209.42" cy="290.19" r="8.81"/>
  <circle class="cls-1" cx="237.23" cy="184.57" r="8.81"/>
  <circle class="cls-1" cx="177.44" cy="119.51" r="8.81"/>
  <circle class="cls-1" cx="203.6" cy="139.61" r="13.25"/>
  <circle class="cls-1" cx="143.28" cy="260.34" r="8.81"/>
  <circle class="cls-1" cx="313.55" cy="113.85" r="16.96"/>
</svg>